<svg xmlns="http://www.w3.org/2000/svg" viewBox="0 0 493 475" width="493" height="475">
  <path d="M 458.00 469.50 L 13.00 468.50 L 5.50 460.00 L 6.50 296.00 L 107.00 218.50 L 120.00 215.50 L 133.00 228.50 L 136.50 227.00 L 229.50 71.00 L 240.00 58.50 L 251.00 57.50 L 260.50 65.00 L 340.50 197.00 L 345.00 198.50 L 440.50 40.00 L 347.00 37.50 L 339.50 25.00 L 342.50 14.00 L 349.00 8.50 L 481.00 8.50 L 487.50 13.00 L 489.50 49.00 L 488.50 461.00 L 484.00 467.50 L 458.00 469.50 Z M 458.50 388.00 L 459.50 175.00 L 458.50 76.00 L 456.00 75.50 L 369.50 218.00 L 362.50 234.00 L 452.50 384.00 L 458.50 388.00 Z M 230.50 385.00 L 231.50 163.00 L 230.50 135.00 L 228.00 134.50 L 157.50 251.00 L 153.50 262.00 L 226.50 384.00 L 230.50 385.00 Z M 266.50 387.00 L 341.50 259.00 L 274.50 147.00 L 264.00 134.50 L 262.50 360.00 L 263.50 387.00 L 266.50 387.00 Z M 39.50 387.00 L 115.50 262.00 L 112.00 254.50 L 36.50 311.00 L 36.50 387.00 L 39.50 387.00 Z M 446.50 437.00 L 361.00 293.50 L 355.50 298.00 L 272.50 435.00 L 273.00 437.50 L 446.50 437.00 Z M 198.50 438.00 L 221.00 437.50 L 221.50 435.00 L 138.50 299.00 L 133.00 294.50 L 46.50 437.00 L 198.50 438.00 Z" fill="rgb(225,179,130)" fill-rule="evenodd" stroke="none"/>
</svg>
