<svg xmlns="http://www.w3.org/2000/svg" viewBox="0 0 171 193" width="171" height="193">
  <path d="M 159.00 175.50 L 154.00 174.50 L 150.50 171.00 L 135.50 138.00 L 132.00 134.50 L 123.00 132.50 L 96.00 132.50 L 76.00 137.50 L 46.00 151.50 L 14.00 175.50 L 9.00 175.50 L 6.50 172.00 L 7.50 166.00 L 14.50 151.00 L 81.00 16.50 L 88.50 18.00 L 111.50 64.00 L 161.50 166.00 L 161.50 173.00 L 159.00 175.50 Z M 34.50 146.00 L 48.00 137.50 L 76.00 125.50 L 102.00 120.50 L 126.50 122.00 L 85.00 36.50 L 82.50 37.00 L 33.50 137.00 L 30.50 146.00 L 34.50 146.00 Z" fill="rgb(225,179,130)" fill-rule="evenodd" stroke="none"/>
</svg>
